<svg width="36" height="36" viewBox="0 0 36 36" xmlns="http://www.w3.org/2000/svg" xmlns:xlink="http://www.w3.org/1999/xlink"><defs><path d="M30 0l-.001 3H33v3h3v24h-3v3h-3.009v3H6v-3H3v-3H0V6h3V3h3V0h24z" id="a"/><path d="M24.774 20.084h-1.548v-3.72h1.548c1.025 0 1.86.834 1.86 1.86 0 1.025-.835 1.86-1.86 1.86zm-13.548 0a1.862 1.862 0 01-1.86-1.86c0-1.026.834-1.86 1.86-1.86h1.548v3.72h-1.548zm12-7.088V9.184a1.683 1.683 0 10-3.367 0v15.024c0 .945-.677 1.789-1.614 1.91a1.862 1.862 0 01-2.105-1.845V9.183a1.683 1.683 0 10-3.366 0v3.813h-1.548A5.227 5.227 0 006 18.224a5.226 5.226 0 005.226 5.227h1.548v.822a5.227 5.227 0 1010.452 0v-.822h1.548A5.226 5.226 0 0030 18.224a5.227 5.227 0 00-5.226-5.228h-1.548z" id="d"/><linearGradient x1="0%" y1="50%" y2="50%" id="c"><stop stop-color="#51AAFF" offset="0%"/><stop stop-color="#5A40FA" offset="100%"/></linearGradient><mask id="b" x="0" y="0" width="36" height="36" fill="#fff"><use xlink:href="#a"/></mask></defs><g fill="none" fill-rule="evenodd"><use stroke="#787DFF" mask="url(#b)" stroke-width="4" fill="#575DFC" stroke-dasharray="0,0" xlink:href="#a"/><use fill="url(#c)" xlink:href="#d"/><use fill="#FFF" xlink:href="#d"/></g></svg>