<svg width="36" height="36" viewBox="0 0 36 36" xmlns="http://www.w3.org/2000/svg" xmlns:xlink="http://www.w3.org/1999/xlink"><defs><path d="M30 0l-.001 3H33v3h3v24h-3v3h-3.009v3H6v-3H3v-3H0V6h3V3h3V0h24z" id="a"/><mask id="b" x="0" y="0" width="36" height="36" fill="#fff"><use xlink:href="#a"/></mask></defs><g fill="none" fill-rule="evenodd"><use stroke="#787DFF" mask="url(#b)" stroke-width="4" fill="#575DFC" stroke-dasharray="0,0" xlink:href="#a"/><path d="M21 5v2h2v2h2v2h2v4h2v10h-2v2h-2v2h-2v2H13v-2h-2v-2H9v-2H7V15h2v-4h2V9h2V7h1V5h7z" fill="#FFF"/><path d="M20 23v2h-4v-2h4zm-4-2v2h-2v-2h2zm6 0v2h-2v-2h2zm-8-2v2h-2v-2h2zm10 0v2h-2v-2h2zm-9-3h2v2h-2v-2zm4 0h2v2h-2v-2z" fill="#575DFC"/></g></svg>