<svg width="36" height="36" viewBox="0 0 36 36" xmlns="http://www.w3.org/2000/svg" xmlns:xlink="http://www.w3.org/1999/xlink"><defs><path d="M30 0l-.001 3H33v3h3v24h-3v3h-3.009v3H6v-3H3v-3H0V6h3V3h3V0h24z" id="a"/><mask id="b" x="0" y="0" width="36" height="36" fill="#fff"><use xlink:href="#a"/></mask></defs><g fill="none" fill-rule="evenodd"><use stroke="#787DFF" mask="url(#b)" stroke-width="4" fill="#575DFC" stroke-dasharray="0,0" xlink:href="#a"/><path d="M12 23v2h2v2h-2v4h-2v-8h2zm6 0v8h-2v-2h-2v-2h2v-4h2zm8 0v8h-6v-8h6zm-2 2h-2v4h2v-4zm0-3h-2v-2h-2v2h-2v-2h-2v2h-2v-2h-2v-2h-2v-8h2V8h2V6h8v2h2v2h-4v4h4v-4h2v8h-2v4zm-4-7h-2v2h2v-2zm-2-5h-4v4h4v-4z" fill="#FFF"/></g></svg>