<svg width="36" height="36" viewBox="0 0 36 36" xmlns="http://www.w3.org/2000/svg" xmlns:xlink="http://www.w3.org/1999/xlink"><defs><path d="M30 0l-.001 3H33v3h3v24h-3v3h-3.009v3H6v-3H3v-3H0V6h3V3h3V0h24z" id="a"/><mask id="b" x="0" y="0" width="36" height="36" fill="#fff"><use xlink:href="#a"/></mask></defs><g fill="none" fill-rule="evenodd"><use stroke="#787DFF" mask="url(#b)" stroke-width="4" fill="#575DFC" stroke-dasharray="0,0" xlink:href="#a"/><path d="M9 23H7V11h2V9h18v2h2v12h-2v2H13v2h-2v2H9v-6z" fill="#FFF"/><path d="M15 20v-2h-2v-4h4v2h2v-2h4v4h-2v2h-2v2h-2v-2h-2z" fill="#575DFC"/></g></svg>