<svg width="16" height="13" viewBox="0 0 16 13" xmlns="http://www.w3.org/2000/svg"><path d="M13.566 1.03a.04.04 0 00-.021-.02A13.2 13.2 0 0010.288 0a.05.05 0 00-.052.026c-.15.27-.285.548-.406.832a12.186 12.186 0 00-3.658 0A8.423 8.423 0 005.76.026.051.051 0 005.708 0c-1.125.194-2.22.533-3.257 1.01a.047.047 0 00-.021.018C.356 4.127-.213 7.149.066 10.132c.002.015.01.028.02.038a13.27 13.27 0 003.996 2.018.052.052 0 00.056-.018c.309-.42.582-.864.818-1.33a.05.05 0 00-.028-.07 8.74 8.74 0 01-1.248-.594.051.051 0 01-.005-.085c.084-.063.167-.128.248-.194a.05.05 0 01.051-.007c2.619 1.195 5.454 1.195 8.041 0a.05.05 0 01.053.006c.08.067.164.132.248.195a.051.051 0 01-.004.085 8.202 8.202 0 01-1.25.594.051.051 0 00-.026.07c.24.463.512.907.816 1.33a.05.05 0 00.057.018 13.226 13.226 0 004.001-2.018.051.051 0 00.021-.037c.334-3.45-.559-6.447-2.365-9.103zm-8.22 7.285c-.788 0-1.437-.723-1.437-1.612 0-.888.637-1.612 1.438-1.612.807 0 1.45.73 1.438 1.612 0 .889-.637 1.612-1.438 1.612zm5.317 0c-.788 0-1.438-.723-1.438-1.612 0-.888.637-1.612 1.438-1.612.807 0 1.45.73 1.438 1.612 0 .889-.63 1.612-1.438 1.612z" fill="#FFF"/></svg>