<svg width="36" height="36" viewBox="0 0 36 36" xmlns="http://www.w3.org/2000/svg" xmlns:xlink="http://www.w3.org/1999/xlink"><defs><filter x="-8.3%" y="-8.3%" width="116.7%" height="116.7%" filterUnits="objectBoundingBox" id="b"><feOffset dx="6" dy="6" in="SourceAlpha" result="shadowOffsetInner1"/><feComposite in="shadowOffsetInner1" in2="SourceAlpha" operator="arithmetic" k2="-1" k3="1" result="shadowInnerInner1"/><feColorMatrix values="0 0 0 0 1 0 0 0 0 1 0 0 0 0 1 0 0 0 0.3 0" in="shadowInnerInner1" result="shadowMatrixInner1"/><feOffset dx="-6" dy="-6" in="SourceAlpha" result="shadowOffsetInner2"/><feComposite in="shadowOffsetInner2" in2="SourceAlpha" operator="arithmetic" k2="-1" k3="1" result="shadowInnerInner2"/><feColorMatrix values="0 0 0 0 0 0 0 0 0 0 0 0 0 0 0 0 0 0 0.2 0" in="shadowInnerInner2" result="shadowMatrixInner2"/><feMerge><feMergeNode in="shadowMatrixInner1"/><feMergeNode in="shadowMatrixInner2"/></feMerge></filter><filter x="-5.6%" y="-8.3%" width="111.1%" height="133.3%" filterUnits="objectBoundingBox" id="d"><feOffset dy="2" in="SourceAlpha" result="shadowOffsetOuter1"/><feColorMatrix values="0 0 0 0 0 0 0 0 0 0 0 0 0 0 0 0 0 0 1 0" in="shadowOffsetOuter1"/></filter><path d="M30 0l-.001 3H33v3h3v24h-3v3h-3.009v3H6v-3H3v-3H0V6h3V3h3V0h24z" id="a"/><path d="M15 12v4h-2v8h-2v-8H9v-2h4v-2h2zm8 0v2h4v2h-2v8h-2v-8h-2v-4h2zm-2 8v2h-6v-2h6z" id="e"/><mask id="c" maskContentUnits="userSpaceOnUse" maskUnits="objectBoundingBox" x="0" y="0" width="36" height="36" fill="#fff"><use xlink:href="#a"/></mask></defs><g fill="none" fill-rule="evenodd"><g stroke-dasharray="0,0"><use fill="#EA4335" xlink:href="#a"/><use fill="#B5BFC9" xlink:href="#a"/><use fill="#000" filter="url(#b)" xlink:href="#a"/><use stroke="#000" mask="url(#c)" stroke-width="4" xlink:href="#a"/></g><g fill="#000"><use filter="url(#d)" xlink:href="#e"/><use xlink:href="#e"/></g></g></svg>